<svg width="51" height="28" viewBox="0 0 51 28" fill="none" xmlns="http://www.w3.org/2000/svg">
<g filter="url(#filter0_ddii_361_1963)">
<g clip-path="url(#clip0_361_1963)">
<rect x="1" y="1.74965" width="49" height="24" rx="12" fill="#117AF5"/>
<circle cx="14.5824" cy="15.1671" r="10.68" fill="white" fill-opacity="0.1"/>
<circle cx="14.5816" cy="15.1671" r="15.0777" fill="white" fill-opacity="0.1"/>
<circle cx="14.5817" cy="15.1671" r="19.8942" fill="white" fill-opacity="0.1"/>
<path d="M45.2789 3.42975C48.9506 3.26237 52.063 6.10302 52.2307 9.77471C52.3692 12.8098 50.4515 15.4606 47.7089 16.3842C48.0973 17.1783 48.3349 18.0626 48.3777 19.0019C48.5452 22.6736 45.7045 25.7859 42.0328 25.9537C40.3708 26.0295 38.8244 25.4875 37.6128 24.5326C37.2999 26.8986 35.3315 28.7738 32.864 28.8864C31.2108 28.9619 29.7078 28.2291 28.7373 27.0375C28.0786 27.4049 27.3272 27.6307 26.5225 27.6674C25.8984 27.6958 25.2959 27.6085 24.7352 27.4254C24.3038 29.65 22.3981 31.3749 20.0344 31.4827C18.339 31.5601 16.8022 30.7873 15.8351 29.5413C15.1352 29.9705 14.3205 30.2351 13.4422 30.2752C11.354 30.3703 9.50565 29.1763 8.66736 27.3961C7.89808 27.9578 6.96152 28.3087 5.93873 28.3555C3.16746 28.4819 0.817989 26.3375 0.691516 23.5662C0.565054 20.795 2.70946 18.4455 5.48073 18.319C7.56872 18.2239 9.41615 19.4184 10.2546 21.1981C11.024 20.6362 11.9613 20.2865 12.9843 20.2397C14.6791 20.1624 16.2154 20.935 17.1826 22.1802C17.8826 21.7508 18.698 21.4874 19.5765 21.4473C20.2004 21.4188 20.8031 21.5054 21.3637 21.6883C21.7954 19.4642 23.7012 17.74 26.0646 17.6319C27.7174 17.5565 29.2197 18.2888 30.1902 19.48C30.8491 19.1122 31.601 18.8877 32.406 18.851C33.3735 18.8068 34.2891 19.0395 35.0771 19.4789C34.9981 16.4984 36.8978 13.909 39.6008 12.9983C39.2128 12.2045 38.9758 11.3204 38.933 10.3815C38.7656 6.70971 41.6071 3.5973 45.2789 3.42975Z" fill="#F3FDFF" fill-opacity="0.6"/>
<path d="M49.3457 6.88335C53.0212 6.88356 56.0008 9.86312 56.001 13.5386C56.001 16.5768 53.9645 19.1375 51.1826 19.9351C51.5344 20.7461 51.7314 21.6403 51.7314 22.5806C51.7313 26.2561 48.7516 29.2356 45.0762 29.2359C43.4125 29.2359 41.8924 28.6239 40.7256 27.6148C40.3052 29.964 38.2533 31.7475 35.7832 31.7476C34.1283 31.7476 32.6603 30.9471 31.7451 29.7124C31.0703 30.0495 30.3095 30.2408 29.5039 30.2408C28.8792 30.2407 28.2813 30.126 27.7295 29.9175C27.1971 32.1202 25.2148 33.7564 22.8486 33.7564C21.1514 33.7564 19.6515 32.9144 18.7422 31.6255C18.0234 32.0224 17.1975 32.2496 16.3184 32.2496C14.2276 32.2494 12.4358 30.9719 11.6797 29.1548C10.8855 29.6811 9.9342 29.9897 8.91016 29.9898C6.136 29.9898 3.88672 27.7405 3.88672 24.9664C3.88672 22.1922 6.136 19.9429 8.91016 19.9429C11.0003 19.9431 12.7914 21.2205 13.5479 23.0367C14.342 22.5104 15.2943 22.2037 16.3184 22.2037C18.015 22.2037 19.5144 23.0455 20.4238 24.3335C21.1427 23.9365 21.9693 23.7105 22.8486 23.7105C23.4732 23.7105 24.0714 23.8244 24.623 24.0328C25.1557 21.8306 27.1381 20.195 29.5039 20.1949C31.1584 20.1949 32.6258 20.9948 33.541 22.229C34.216 21.8918 34.9773 21.7017 35.7832 21.7017C36.7516 21.7017 37.6558 21.9759 38.4229 22.4507C38.4798 19.4698 40.4955 16.9696 43.2373 16.1832C42.8859 15.3725 42.6895 14.4784 42.6895 13.5386C42.6896 9.86299 45.67 6.88335 49.3457 6.88335Z" fill="#F3FDFF"/>
<path d="M22.5813 7.8263C22.4589 7.9858 22.31 8.07076 22.1348 8.08116C22.31 8.09157 22.4589 8.17652 22.5813 8.33776C22.7037 8.49727 22.7649 8.68799 22.7649 8.90818C22.7649 8.76254 22.7927 8.62904 22.8483 8.50421C22.9054 8.37937 22.9819 8.27881 23.0779 8.20426C23.1752 8.12798 23.2809 8.0881 23.3964 8.08116C23.2197 8.06903 23.0709 7.9858 22.9485 7.8263C22.8261 7.66679 22.7649 7.47781 22.7649 7.25761C22.7649 7.47781 22.7037 7.66679 22.5813 7.8263Z" fill="white"/>
<path d="M26.0486 3.87872C25.8056 4.19541 25.5101 4.36408 25.1621 4.38474C25.5101 4.40539 25.8056 4.57406 26.0486 4.8942C26.2916 5.21089 26.4132 5.58954 26.4132 6.02671C26.4132 5.73756 26.4684 5.4725 26.5789 5.22466C26.6921 4.97681 26.844 4.77716 27.0345 4.62914C27.2278 4.47768 27.4377 4.39851 27.667 4.38474C27.3162 4.36064 27.0207 4.19541 26.7777 3.87872C26.5347 3.56203 26.4132 3.18682 26.4132 2.74965C26.4132 3.18682 26.2916 3.56203 26.0486 3.87872Z" fill="white"/>
<path d="M33.6637 6.96749C33.5005 7.18016 33.302 7.29344 33.0684 7.30731C33.302 7.32118 33.5005 7.43445 33.6637 7.64944C33.8269 7.86212 33.9085 8.11641 33.9085 8.41C33.9085 8.21581 33.9456 8.03781 34.0198 7.87137C34.0958 7.70492 34.1978 7.57084 34.3258 7.47144C34.4556 7.36973 34.5966 7.31656 34.7505 7.30731C34.515 7.29113 34.3165 7.18016 34.1533 6.96749C33.9901 6.75481 33.9085 6.50283 33.9085 6.20924C33.9085 6.50283 33.8269 6.75481 33.6637 6.96749Z" fill="white"/>
<path d="M29.8539 5.66495C29.8131 5.71812 29.7635 5.74644 29.7051 5.7499C29.7635 5.75337 29.8131 5.78169 29.8539 5.83544C29.8947 5.88861 29.9151 5.95218 29.9151 6.02558C29.9151 5.97703 29.9244 5.93253 29.9429 5.89092C29.9619 5.84931 29.9874 5.81579 30.0194 5.79094C30.0519 5.76551 30.0871 5.75222 30.1256 5.7499C30.0667 5.74586 30.0171 5.71812 29.9763 5.66495C29.9355 5.61178 29.9151 5.54878 29.9151 5.47539C29.9151 5.54878 29.8947 5.61178 29.8539 5.66495Z" fill="white"/>
<path d="M29.2152 10.0101C29.1417 10.1058 29.0524 10.1567 28.9473 10.163C29.0524 10.1692 29.1417 10.2202 29.2152 10.3169C29.2886 10.4126 29.3253 10.5271 29.3253 10.6592C29.3253 10.5718 29.342 10.4917 29.3754 10.4168C29.4096 10.3419 29.4555 10.2816 29.5131 10.2368C29.5715 10.1911 29.635 10.1671 29.7042 10.163C29.5982 10.1557 29.5089 10.1058 29.4355 10.0101C29.3621 9.91436 29.3253 9.80097 29.3253 9.66885C29.3253 9.80097 29.2886 9.91436 29.2152 10.0101Z" fill="white"/>
<path d="M35.0179 11.8971C34.9445 11.9928 34.8552 12.0438 34.75 12.05C34.8552 12.0563 34.9445 12.1073 35.0179 12.204C35.0913 12.2997 35.1281 12.4141 35.1281 12.5462C35.1281 12.4589 35.1448 12.3788 35.1781 12.3039C35.2124 12.229 35.2583 12.1686 35.3159 12.1239C35.3743 12.0781 35.4377 12.0542 35.507 12.05C35.401 12.0428 35.3117 11.9928 35.2382 11.8971C35.1648 11.8014 35.1281 11.688 35.1281 11.5559C35.1281 11.688 35.0913 11.8014 35.0179 11.8971Z" fill="white"/>
<path d="M24.7496 11.2398C24.5864 11.4525 24.388 11.5657 24.1543 11.5796C24.388 11.5935 24.5864 11.7067 24.7496 11.9217C24.9128 12.1344 24.9945 12.3887 24.9945 12.6823C24.9945 12.4881 25.0315 12.3101 25.1057 12.1437C25.1818 11.9772 25.2838 11.8431 25.4117 11.7437C25.5416 11.642 25.6825 11.5888 25.8365 11.5796C25.6009 11.5634 25.4025 11.4525 25.2393 11.2398C25.0761 11.0271 24.9945 10.7751 24.9945 10.4815C24.9945 10.7751 24.9128 11.0271 24.7496 11.2398Z" fill="white"/>
<path d="M31.695 13.9447C31.5645 14.1148 31.4057 14.2055 31.2188 14.2166C31.4057 14.2277 31.5645 14.3183 31.695 14.4903C31.8256 14.6604 31.8909 14.8638 31.8909 15.0987C31.8909 14.9434 31.9205 14.801 31.9799 14.6678C32.0407 14.5346 32.1223 14.4274 32.2247 14.3479C32.3286 14.2665 32.4413 14.224 32.5645 14.2166C32.376 14.2036 32.2173 14.1148 32.0867 13.9447C31.9562 13.7746 31.8909 13.573 31.8909 13.3381C31.8909 13.573 31.8256 13.7746 31.695 13.9447Z" fill="white"/>
<path d="M31.8077 9.4627C31.7844 9.49309 31.7561 9.50928 31.7227 9.51126C31.7561 9.51325 31.7844 9.52943 31.8077 9.56016C31.8311 9.59055 31.8427 9.62689 31.8427 9.66885C31.8427 9.6411 31.848 9.61566 31.8586 9.59187C31.8695 9.56809 31.8841 9.54893 31.9024 9.53472C31.9209 9.52018 31.9411 9.51259 31.9631 9.51126C31.9294 9.50895 31.901 9.49309 31.8777 9.4627C31.8544 9.43231 31.8427 9.3963 31.8427 9.35434C31.8427 9.3963 31.8311 9.43231 31.8077 9.4627Z" fill="white"/>
<g filter="url(#filter1_dd_361_1963)">
<g clip-path="url(#clip1_361_1963)">
<g filter="url(#filter2_ii_361_1963)">
<circle cx="13.1496" cy="13.7348" r="10.4973" fill="#ECCD2D"/>
</g>
</g>
</g>
</g>
</g>
<defs>
<filter id="filter0_ddii_361_1963" x="0.338753" y="0.427156" width="50.3225" height="26.645" filterUnits="userSpaceOnUse" color-interpolation-filters="sRGB">
<feFlood flood-opacity="0" result="BackgroundImageFix"/>
<feColorMatrix in="SourceAlpha" type="matrix" values="0 0 0 0 0 0 0 0 0 0 0 0 0 0 0 0 0 0 127 0" result="hardAlpha"/>
<feOffset dy="0.661247"/>
<feGaussianBlur stdDeviation="0.330623"/>
<feComposite in2="hardAlpha" operator="out"/>
<feColorMatrix type="matrix" values="0 0 0 0 1 0 0 0 0 1 0 0 0 0 1 0 0 0 0.94 0"/>
<feBlend mode="normal" in2="BackgroundImageFix" result="effect1_dropShadow_361_1963"/>
<feColorMatrix in="SourceAlpha" type="matrix" values="0 0 0 0 0 0 0 0 0 0 0 0 0 0 0 0 0 0 127 0" result="hardAlpha"/>
<feOffset dy="-0.661247"/>
<feGaussianBlur stdDeviation="0.330623"/>
<feComposite in2="hardAlpha" operator="out"/>
<feColorMatrix type="matrix" values="0 0 0 0 0 0 0 0 0 0 0 0 0 0 0 0 0 0 0.25 0"/>
<feBlend mode="normal" in2="effect1_dropShadow_361_1963" result="effect2_dropShadow_361_1963"/>
<feBlend mode="normal" in="SourceGraphic" in2="effect2_dropShadow_361_1963" result="shape"/>
<feColorMatrix in="SourceAlpha" type="matrix" values="0 0 0 0 0 0 0 0 0 0 0 0 0 0 0 0 0 0 127 0" result="hardAlpha"/>
<feOffset dy="1.15718"/>
<feGaussianBlur stdDeviation="0.743902"/>
<feComposite in2="hardAlpha" operator="arithmetic" k2="-1" k3="1"/>
<feColorMatrix type="matrix" values="0 0 0 0 0 0 0 0 0 0 0 0 0 0 0 0 0 0 0.25 0"/>
<feBlend mode="normal" in2="shape" result="effect3_innerShadow_361_1963"/>
<feColorMatrix in="SourceAlpha" type="matrix" values="0 0 0 0 0 0 0 0 0 0 0 0 0 0 0 0 0 0 127 0" result="hardAlpha"/>
<feOffset dy="-0.826558"/>
<feGaussianBlur stdDeviation="1.15718"/>
<feComposite in2="hardAlpha" operator="arithmetic" k2="-1" k3="1"/>
<feColorMatrix type="matrix" values="0 0 0 0 0 0 0 0 0 0 0 0 0 0 0 0 0 0 0.25 0"/>
<feBlend mode="normal" in2="effect3_innerShadow_361_1963" result="effect4_innerShadow_361_1963"/>
</filter>
<filter id="filter1_dd_361_1963" x="1.9911" y="3.07216" width="23.6391" height="23.6396" filterUnits="userSpaceOnUse" color-interpolation-filters="sRGB">
<feFlood flood-opacity="0" result="BackgroundImageFix"/>
<feColorMatrix in="SourceAlpha" type="matrix" values="0 0 0 0 0 0 0 0 0 0 0 0 0 0 0 0 0 0 127 0" result="hardAlpha"/>
<feOffset dx="0.661247" dy="1.15718"/>
<feGaussianBlur stdDeviation="0.661247"/>
<feComposite in2="hardAlpha" operator="out"/>
<feColorMatrix type="matrix" values="0 0 0 0 0 0 0 0 0 0 0 0 0 0 0 0 0 0 0.25 0"/>
<feBlend mode="normal" in2="BackgroundImageFix" result="effect1_dropShadow_361_1963"/>
<feColorMatrix in="SourceAlpha" type="matrix" values="0 0 0 0 0 0 0 0 0 0 0 0 0 0 0 0 0 0 127 0" result="hardAlpha"/>
<feOffset dy="0.661247"/>
<feGaussianBlur stdDeviation="0.330623"/>
<feComposite in2="hardAlpha" operator="out"/>
<feColorMatrix type="matrix" values="0 0 0 0 0 0 0 0 0 0 0 0 0 0 0 0 0 0 0.25 0"/>
<feBlend mode="normal" in2="effect1_dropShadow_361_1963" result="effect2_dropShadow_361_1963"/>
<feBlend mode="normal" in="SourceGraphic" in2="effect2_dropShadow_361_1963" result="shape"/>
</filter>
<filter id="filter2_ii_361_1963" x="2.65234" y="2.57623" width="21.4901" height="22.3171" filterUnits="userSpaceOnUse" color-interpolation-filters="sRGB">
<feFlood flood-opacity="0" result="BackgroundImageFix"/>
<feBlend mode="normal" in="SourceGraphic" in2="BackgroundImageFix" result="shape"/>
<feColorMatrix in="SourceAlpha" type="matrix" values="0 0 0 0 0 0 0 0 0 0 0 0 0 0 0 0 0 0 127 0" result="hardAlpha"/>
<feOffset dx="0.495935" dy="0.661247"/>
<feGaussianBlur stdDeviation="0.330623"/>
<feComposite in2="hardAlpha" operator="arithmetic" k2="-1" k3="1"/>
<feColorMatrix type="matrix" values="0 0 0 0 1 0 0 0 0 1 0 0 0 0 1 0 0 0 0.6 0"/>
<feBlend mode="normal" in2="shape" result="effect1_innerShadow_361_1963"/>
<feColorMatrix in="SourceAlpha" type="matrix" values="0 0 0 0 0 0 0 0 0 0 0 0 0 0 0 0 0 0 127 0" result="hardAlpha"/>
<feOffset dy="-0.826558"/>
<feGaussianBlur stdDeviation="0.330623"/>
<feComposite in2="hardAlpha" operator="arithmetic" k2="-1" k3="1"/>
<feColorMatrix type="matrix" values="0 0 0 0 0.51172 0 0 0 0 0.520028 0 0 0 0 0.123306 0 0 0 1 0"/>
<feBlend mode="normal" in2="effect1_innerShadow_361_1963" result="effect2_innerShadow_361_1963"/>
</filter>
<clipPath id="clip0_361_1963">
<rect x="1" y="1.74965" width="49" height="24" rx="12" fill="white"/>
</clipPath>
<clipPath id="clip1_361_1963">
<rect x="2.65234" y="3.23747" width="20.9946" height="20.9946" rx="10.4973" fill="white"/>
</clipPath>
</defs>
</svg>
