<svg width="41" height="40" viewBox="0 0 41 40" fill="none" xmlns="http://www.w3.org/2000/svg">
<g clip-path="url(#clip0_372_3498)">
<path d="M11.0736 10.89L8.48828 8.30469L8.49922 26.9922L8.53016 27.8656C8.54297 28.2766 8.61922 28.7403 8.74641 29.2209L29.2314 36.4444L34.352 34.1756L34.3539 34.1694L11.0736 10.89Z" fill="#00D2B8"/>
<path d="M8.74656 29.2209L8.74781 29.2221C8.74656 29.2137 8.74219 29.2043 8.74219 29.1956C8.74219 29.2043 8.74344 29.2124 8.74656 29.2209ZM34.3522 34.1756L29.2316 36.4443L8.74781 29.2221C9.13906 30.7234 10.0053 32.4109 10.9375 33.3337L17.6225 39.9806L32.4866 39.9999L34.3541 34.1693L34.3522 34.1756Z" fill="#55DDCA"/>
<path d="M0.525388 20.3306C-0.136487 21.0372 0.192263 22.4947 1.25789 23.5684L5.85445 28.2031L8.74508 29.2209C8.61789 28.7403 8.54164 28.2766 8.52882 27.8656L8.49789 26.9922L8.48695 8.30469L0.525388 20.3306Z" fill="#0081C6"/>
<path d="M29.3995 8.54465C28.9189 8.42184 28.458 8.3459 28.0402 8.33278L27.117 8.3009L8.48828 8.3034L34.3564 34.1693H34.3586L36.6305 29.0437L29.3995 8.54465Z" fill="#0079B3"/>
<path d="M29.375 8.53967C29.385 8.54186 29.3928 8.54467 29.3994 8.54561L29.3984 8.54467C29.3928 8.54186 29.385 8.54186 29.375 8.53967ZM33.5075 10.7394C32.5687 9.7928 30.9034 8.93249 29.3994 8.54561L36.6294 29.0437L34.3575 34.1694H34.3553L39.9072 32.3962L39.9191 17.175L33.5075 10.7394Z" fill="#00A4E4"/>
<path d="M28.3867 5.67154L23.7533 1.07217C22.6817 0.0106038 21.2236 -0.319709 20.5189 0.340291L8.48828 8.30342L27.117 8.30092L28.0402 8.33279C28.458 8.34592 28.9189 8.42185 29.3995 8.54467L28.3867 5.67154Z" fill="#00D2B8"/>
</g>
<defs>
<clipPath id="clip0_372_3498">
<rect width="40" height="40" fill="white" transform="translate(0.0507812)"/>
</clipPath>
</defs>
</svg>
