<svg width="244" height="356" viewBox="0 0 244 356" fill="none" xmlns="http://www.w3.org/2000/svg">
<g style="mix-blend-mode:plus-lighter" opacity="0.2">
<path fill-rule="evenodd" clip-rule="evenodd" d="M181.477 302.041L181.477 356L127.517 356L127.517 350.219C127.517 323.611 149.087 302.041 175.695 302.041L181.477 302.041Z" fill="#A3A3A3" fill-opacity="0.5"/>
<path d="M181.376 355.9L127.617 355.9L127.617 350.219C127.617 323.666 149.143 302.141 175.695 302.141L181.376 302.141L181.376 355.9Z" stroke="#A3A3A3" stroke-opacity="0.2" stroke-width="0.200453"/>
<path fill-rule="evenodd" clip-rule="evenodd" d="M181.477 296.777L181.477 242.817L127.517 242.817L127.517 248.599C127.517 275.207 149.087 296.777 175.695 296.777L181.477 296.777Z" fill="#A3A3A3" fill-opacity="0.5"/>
<path d="M181.376 242.917L127.617 242.917L127.617 248.599C127.617 275.151 149.143 296.676 175.695 296.676L181.376 296.676L181.376 242.917Z" stroke="#A3A3A3" stroke-opacity="0.2" stroke-width="0.200453"/>
<path fill-rule="evenodd" clip-rule="evenodd" d="M127.523 234.92L127.523 181.619L181.483 181.619L181.483 187.33C181.483 213.613 159.913 234.92 133.305 234.92L127.523 234.92Z" fill="#A3A3A3" fill-opacity="0.5"/>
<path d="M127.624 181.719L181.383 181.719L181.383 187.33C181.383 213.557 159.858 234.82 133.305 234.82L127.624 234.82L127.624 181.719Z" stroke="#A3A3A3" stroke-opacity="0.2" stroke-width="0.200453"/>
<path fill-rule="evenodd" clip-rule="evenodd" d="M127.523 121.08L127.523 175.039L181.483 175.039L181.483 169.258C181.483 142.65 159.913 121.08 133.305 121.08L127.523 121.08Z" fill="#A3A3A3" fill-opacity="0.5"/>
<path d="M127.624 174.939L181.383 174.939L181.383 169.257C181.383 142.705 159.857 121.18 133.305 121.18L127.624 121.18L127.624 174.939Z" stroke="#A3A3A3" stroke-opacity="0.2" stroke-width="0.200453"/>
<path fill-rule="evenodd" clip-rule="evenodd" d="M244 121.08L244 175.039L190.041 175.039L190.041 169.258C190.041 142.65 211.611 121.08 238.219 121.08L244 121.08Z" fill="#A3A3A3" fill-opacity="0.5"/>
<path d="M243.899 174.939L190.141 174.939L190.141 169.257C190.141 142.705 211.666 121.18 238.219 121.18L243.899 121.18L243.899 174.939Z" stroke="#A3A3A3" stroke-opacity="0.2" stroke-width="0.200453"/>
<path fill-rule="evenodd" clip-rule="evenodd" d="M190.035 234.263L190.035 180.303L243.994 180.303L243.994 186.085C243.994 212.693 222.424 234.263 195.817 234.263L190.035 234.263Z" fill="#A3A3A3" fill-opacity="0.5"/>
<path d="M190.136 180.403L243.895 180.403L243.895 186.085C243.894 212.637 222.369 234.162 195.816 234.162L190.136 234.162L190.136 180.403Z" stroke="#A3A3A3" stroke-opacity="0.2" stroke-width="0.200453"/>
<path fill-rule="evenodd" clip-rule="evenodd" d="M190.035 295.46L190.035 242.159L243.994 242.159L243.994 247.87C243.994 274.153 222.424 295.46 195.817 295.46L190.035 295.46Z" fill="#A3A3A3" fill-opacity="0.5"/>
<path d="M190.136 242.259L243.895 242.259L243.895 247.869C243.895 274.096 222.37 295.359 195.816 295.359L190.136 295.359L190.136 242.259Z" stroke="#A3A3A3" stroke-opacity="0.2" stroke-width="0.200453"/>
<path fill-rule="evenodd" clip-rule="evenodd" d="M190.035 302.041L190.035 356L243.994 356L243.994 350.219C243.994 323.611 222.424 302.041 195.817 302.041L190.035 302.041Z" fill="#A3A3A3" fill-opacity="0.5"/>
<path d="M190.035 354.35L191.384 354.35L191.384 354.651L191.685 354.651L191.685 356L194.082 356L194.082 354.35L196.78 354.35L196.78 356L199.479 356L199.479 354.35L202.176 354.35L202.176 356L204.874 356L204.874 354.35L207.572 354.35L207.572 356L210.27 356L210.27 354.35L212.968 354.35L212.968 356L215.666 356L215.666 354.35L218.364 354.35L218.364 356L221.062 356L221.062 354.35L223.76 354.35L223.76 356L226.458 356L226.458 354.35L229.155 354.35L229.155 356L231.854 356L231.854 354.35L234.552 354.35L234.552 356L237.25 356L237.25 354.35L239.947 354.35L239.947 356L242.345 356L242.345 354.554L242.646 354.554L242.646 354.35L243.994 354.35L243.994 351.664L242.345 351.664L242.345 350.219C242.345 349.781 242.339 349.344 242.327 348.909L243.975 348.864C243.95 347.958 243.9 347.059 243.825 346.166L242.183 346.302C242.11 345.431 242.014 344.566 241.894 343.709L243.526 343.48C243.401 342.584 243.25 341.696 243.076 340.816L241.459 341.136C241.29 340.28 241.097 339.431 240.881 338.593L242.478 338.181C242.252 337.306 242 336.44 241.728 335.585L240.159 336.084C239.894 335.252 239.607 334.431 239.298 333.621L240.835 333.033C240.513 332.189 240.168 331.356 239.801 330.536L238.298 331.21C237.941 330.414 237.563 329.63 237.164 328.859L238.626 328.102C238.211 327.301 237.773 326.513 237.315 325.738L235.899 326.577C235.456 325.827 234.992 325.09 234.509 324.368L235.877 323.451C235.375 322.702 234.853 321.968 234.312 321.249L232.996 322.24C232.472 321.545 231.929 320.864 231.367 320.2L232.624 319.137C232.042 318.449 231.443 317.776 230.824 317.122L229.627 318.254C229.029 317.621 228.414 317.006 227.781 316.408L228.913 315.211C228.259 314.592 227.586 313.992 226.897 313.41L225.835 314.668C225.171 314.106 224.49 313.563 223.795 313.039L224.786 311.722C224.067 311.181 223.332 310.659 222.583 310.157L221.667 311.526C220.945 311.043 220.209 310.579 219.459 310.135L220.296 308.718C219.522 308.26 218.734 307.822 217.933 307.407L217.176 308.871C216.405 308.472 215.621 308.094 214.825 307.737L215.499 306.233C214.679 305.865 213.845 305.522 213.001 305.2L212.415 306.738C211.605 306.428 210.783 306.141 209.951 305.876L210.45 304.306C209.594 304.034 208.729 303.782 207.853 303.556L207.442 305.154C206.604 304.938 205.755 304.745 204.898 304.576L205.218 302.958C204.338 302.784 203.451 302.634 202.555 302.509L202.326 304.142C201.469 304.022 200.604 303.925 199.732 303.852L199.868 302.209C198.975 302.134 198.076 302.084 197.17 302.059L197.126 303.709C196.691 303.697 196.254 303.69 195.816 303.69L194.371 303.69L194.371 302.041L191.685 302.041L191.685 303.389L191.48 303.389L191.48 303.69L190.035 303.69L190.035 306.088L191.685 306.088L191.685 308.786L190.035 308.786L190.035 311.484L191.685 311.484L191.685 314.181L190.035 314.181L190.035 316.88L191.685 316.88L191.685 319.578L190.035 319.578L190.035 322.275L191.685 322.275L191.685 324.973L190.035 324.973L190.035 327.672L191.685 327.672L191.685 330.37L190.035 330.37L190.035 333.067L191.685 333.067L191.685 335.765L190.035 335.765L190.035 338.464L191.685 338.464L191.685 341.161L190.035 341.161L190.035 343.859L191.685 343.859L191.685 346.557L190.035 346.557L190.035 349.256L191.685 349.256L191.685 351.953L190.035 351.953L190.035 354.35Z" stroke="#A3A3A3" stroke-opacity="0.2" stroke-width="3.29912" stroke-dasharray="2.64 2.64"/>
<path fill-rule="evenodd" clip-rule="evenodd" d="M54.4805 180.961L54.4805 234.921L0.521146 234.92L0.521147 229.139C0.521148 202.531 22.0912 180.961 48.6991 180.961L54.4805 180.961Z" fill="#A3A3A3" fill-opacity="0.5"/>
<path d="M54.4805 233.271L53.1318 233.271L53.1318 233.572L52.8311 233.572L52.8311 234.92L50.4336 234.92L50.4336 233.271L47.7353 233.271L47.7353 234.92L45.0371 234.92L45.0371 233.271L42.3398 233.271L42.3398 234.92L39.6416 234.92L39.6416 233.271L36.9434 233.271L36.9434 234.92L34.2461 234.92L34.2461 233.271L31.5478 233.271L31.5478 234.92L28.8496 234.92L28.8496 233.271L26.1514 233.271L26.1514 234.92L23.4541 234.92L23.4541 233.271L20.7559 233.271L20.7559 234.92L18.0576 234.92L18.0576 233.271L15.3603 233.271L15.3603 234.92L12.6621 234.92L12.6621 233.271L9.96386 233.271L9.96386 234.92L7.26562 234.92L7.26562 233.271L4.56836 233.271L4.56836 234.92L2.1709 234.92L2.1709 233.475L1.87011 233.475L1.87011 233.271L0.521482 233.271L0.521482 230.584L2.1709 230.584L2.1709 229.139C2.1709 228.701 2.17647 228.264 2.18847 227.829L0.541014 227.784C0.566026 226.879 0.616066 225.979 0.690428 225.086L2.33301 225.223C2.40561 224.351 2.50211 223.486 2.62207 222.629L0.989256 222.401C1.11469 221.504 1.26541 220.616 1.43945 219.737L3.05664 220.057C3.22611 219.2 3.41897 218.352 3.63476 217.513L2.03808 217.102C2.26335 216.226 2.51555 215.361 2.78808 214.505L4.35644 215.004C4.6212 214.173 4.90827 213.352 5.21777 212.541L3.68066 211.953C4.00301 211.109 4.34718 210.277 4.71484 209.456L6.21777 210.13C6.57427 209.335 6.95241 208.551 7.35156 207.78L5.88965 207.023C6.30467 206.221 6.74225 205.433 7.20019 204.658L8.61621 205.497C9.05954 204.747 9.52333 204.011 10.0068 203.288L8.63867 202.371C9.14029 201.622 9.66236 200.888 10.2041 200.169L11.5195 201.16C12.0436 200.465 12.587 199.785 13.1484 199.12L11.8916 198.058C12.4734 197.37 13.0725 196.697 13.6914 196.042L14.8887 197.174C15.4866 196.542 16.1021 195.926 16.7344 195.328L15.6025 194.131C16.2571 193.512 16.9297 192.912 17.6182 192.33L18.6807 193.588C19.345 193.027 20.0253 192.483 20.7207 191.959L19.7295 190.643C20.4484 190.101 21.1832 189.579 21.9326 189.077L22.8486 190.447C23.5707 189.963 24.3068 189.499 25.0566 189.056L24.2197 187.638C24.9941 187.18 25.7816 186.742 26.583 186.327L27.3398 187.791C28.111 187.392 28.8949 187.014 29.6904 186.657L29.0166 185.154C29.8371 184.786 30.6706 184.443 31.5146 184.12L32.1006 185.658C32.9111 185.349 33.7329 185.061 34.5645 184.796L34.0654 183.227C34.9215 182.954 35.787 182.702 36.6631 182.477L37.0732 184.074C37.9121 183.859 38.7606 183.666 39.6172 183.496L39.2979 181.878C40.1772 181.704 41.0651 181.554 41.9609 181.429L42.1895 183.063C43.0466 182.943 43.9115 182.845 44.7832 182.773L44.6475 181.129C45.5402 181.055 46.4398 181.005 47.3457 180.98L47.3896 182.629C47.8246 182.617 48.2613 182.611 48.6992 182.611L50.1445 182.611L50.1445 180.961L52.8311 180.961L52.8311 182.31L53.0352 182.31L53.0352 182.611L54.4805 182.611L54.4805 185.008L52.8311 185.008L52.8311 187.706L54.4805 187.706L54.4805 190.405L52.8311 190.405L52.8311 193.102L54.4805 193.102L54.4805 195.8L52.8311 195.8L52.8311 198.498L54.4805 198.498L54.4805 201.196L52.8311 201.196L52.8311 203.894L54.4805 203.894L54.4805 206.592L52.8311 206.592L52.8311 209.29L54.4805 209.29L54.4805 211.988L52.8311 211.988L52.8311 214.686L54.4805 214.686L54.4805 217.384L52.8311 217.384L52.8311 220.081L54.4805 220.081L54.4805 222.78L52.8311 222.78L52.8311 225.478L54.4805 225.478L54.4805 228.176L52.8311 228.176L52.8311 230.873L54.4805 230.873L54.4805 233.271Z" stroke="#A3A3A3" stroke-opacity="0.2" stroke-width="3.29912" stroke-dasharray="2.64 2.64"/>
<path fill-rule="evenodd" clip-rule="evenodd" d="M54.4805 175.697L54.4805 121.737L0.521151 121.737L0.521151 127.519C0.52115 154.127 22.0912 175.697 48.6991 175.697L54.4805 175.697Z" fill="#A3A3A3" fill-opacity="0.5"/>
<path d="M54.3799 121.837L0.621096 121.837L0.621096 127.519C0.621216 154.072 22.1467 175.596 48.6992 175.596L54.3799 175.596L54.3799 121.837Z" stroke="#A3A3A3" stroke-opacity="0.2" stroke-width="0.200453"/>
<path fill-rule="evenodd" clip-rule="evenodd" d="M0.527344 113.841L0.527346 60.5398L54.4867 60.5398L54.4867 66.2506C54.4867 92.5341 32.9167 113.841 6.3087 113.841L0.527344 113.841Z" fill="#A3A3A3" fill-opacity="0.5"/>
<path d="M0.627932 60.6399L54.3867 60.6399L54.3867 66.2502C54.3867 92.4772 32.8624 113.74 6.30859 113.74L0.62793 113.74L0.627932 60.6399Z" stroke="#A3A3A3" stroke-opacity="0.2" stroke-width="0.200453"/>
<path fill-rule="evenodd" clip-rule="evenodd" d="M0.523438 0L0.523435 53.9593L54.4828 53.9593L54.4828 48.178C54.4828 21.57 32.9127 1.41578e-06 6.30479 2.52711e-07L0.523438 0Z" fill="#A3A3A3" fill-opacity="0.5"/>
<path d="M0.624021 53.8594L54.3828 53.8594L54.3828 48.1777C54.3827 21.6252 32.8572 0.100587 6.30469 0.100586L0.624023 0.100586L0.624021 53.8594Z" stroke="#A3A3A3" stroke-opacity="0.2" stroke-width="0.200453"/>
<path fill-rule="evenodd" clip-rule="evenodd" d="M117.004 0L117.004 53.9593L63.0446 53.9593L63.0446 48.178C63.0446 21.57 84.6146 -1.41578e-06 111.223 -2.52711e-07L117.004 0Z" fill="#A3A3A3" fill-opacity="0.5"/>
<path d="M117.004 52.6104L116.344 52.6104L116.344 53.2998L115.655 53.2998L115.655 53.959L112.957 53.959L112.957 53.2998L110.259 53.2998L110.259 53.959L107.561 53.959L107.561 53.2998L104.863 53.2998L104.863 53.959L102.165 53.959L102.165 53.2998L99.4668 53.2998L99.4668 53.959L96.7695 53.959L96.7695 53.2998L94.0713 53.2998L94.0713 53.959L91.373 53.959L91.373 53.2998L88.6748 53.2998L88.6748 53.959L85.9775 53.959L85.9775 53.2998L83.2793 53.2998L83.2793 53.959L80.5811 53.959L80.5811 53.2998L77.8838 53.2998L77.8838 53.959L75.1855 53.959L75.1855 53.2998L72.4873 53.2998L72.4873 53.959L69.7891 53.959L69.7891 53.2998L67.0918 53.2998L67.0918 53.959L64.3936 53.959L64.3936 53.2998L63.7041 53.2998L63.7041 52.5137L63.0449 52.5137L63.0449 49.623L63.7041 49.623L63.7041 48.1777C63.7041 47.7309 63.7104 47.2856 63.7227 46.8418L63.0645 46.8232C63.0895 45.9173 63.1395 45.0177 63.2139 44.125L63.8701 44.1797C63.9442 43.2897 64.0425 42.4066 64.165 41.5312L63.5127 41.4395C63.6381 40.5432 63.7889 39.6551 63.9629 38.7754L64.6094 38.9033C64.7824 38.0286 64.9789 37.1624 65.1992 36.3057L64.5615 36.1406C64.7868 35.2649 65.039 34.3997 65.3115 33.5439L65.9365 33.7432C66.207 32.8938 66.5002 32.0544 66.8164 31.2266L66.2041 30.9922C66.5264 30.1483 66.8706 29.3155 67.2383 28.4951L67.8379 28.7646C68.202 27.9522 68.5884 27.1518 68.9961 26.3643L68.4131 26.0615C68.8281 25.2598 69.2657 24.4719 69.7236 23.6973L70.2871 24.0322C70.7399 23.2663 71.2142 22.5139 71.708 21.7764L71.1621 21.4102C71.6637 20.6609 72.1858 19.9267 72.7275 19.208L73.252 19.6035C73.7872 18.8933 74.3426 18.1989 74.916 17.5205L74.415 17.0967C74.9968 16.4084 75.596 15.7354 76.2148 15.0811L76.6924 15.5332C77.3031 14.8875 77.9324 14.2591 78.5781 13.6484L78.126 13.1699C78.7805 12.5509 79.4532 11.951 80.1416 11.3691L80.5654 11.8711C81.2437 11.2978 81.9384 10.7432 82.6484 10.208L82.2529 9.68164C82.9719 9.13976 83.7066 8.61794 84.4561 8.11621L84.8213 8.66308C85.5588 8.16934 86.3113 7.69591 87.0771 7.24316L86.7432 6.67676C87.5175 6.21901 88.305 5.78106 89.1064 5.36621L89.4082 5.95117C90.1957 5.54349 90.9961 5.1571 91.8086 4.79297L91.54 4.19238C92.3605 3.82466 93.194 3.48156 94.0381 3.15918L94.2715 3.77246C95.0992 3.45629 95.9379 3.16206 96.7871 2.8916L96.5889 2.26562C97.4449 1.99301 98.3105 1.74094 99.1865 1.51562L99.3496 2.15527C100.207 1.93486 101.073 1.73755 101.948 1.56445L101.821 0.916992C102.701 0.743058 103.589 0.593144 104.484 0.467773L104.576 1.12109C105.451 0.998604 106.335 0.899324 107.225 0.825195L107.171 0.167968C108.064 0.0936351 108.963 0.0435411 109.869 0.0185544L109.886 0.678711C110.108 0.672583 110.33 0.667138 110.553 0.664062L111.223 0.660156L112.668 0.660156L112.668 -1.8953e-07L115.559 -6.31766e-08L115.559 0.660156L116.344 0.660156L116.344 1.34863L117.004 1.34863L117.004 4.04688L116.344 4.04687L116.344 6.74512L117.004 6.74512L117.004 9.44336L116.344 9.44336L116.344 12.1406L117.004 12.1406L117.004 14.8389L116.344 14.8389L116.344 17.5371L117.004 17.5371L117.004 20.2344L116.344 20.2344L116.344 22.9326L117.004 22.9326L117.004 25.6309L116.344 25.6309L116.344 28.3291L117.004 28.3291L117.004 31.0264L116.344 31.0264L116.344 33.7246L117.004 33.7246L117.004 36.4229L116.344 36.4229L116.344 39.1201L117.004 39.1201L117.004 41.8184L116.344 41.8184L116.344 44.5166L117.004 44.5166L117.004 47.2148L116.344 47.2148L116.344 49.9121L117.004 49.9121L117.004 52.6104Z" stroke="#A3A3A3" stroke-opacity="0.2" stroke-width="1.31965" stroke-dasharray="2.64 2.64"/>
<path fill-rule="evenodd" clip-rule="evenodd" d="M63.0352 113.183L63.0352 59.2235L116.994 59.2235L116.994 65.0049C116.994 91.6129 95.4245 113.183 68.8165 113.183L63.0352 113.183Z" fill="#A3A3A3" fill-opacity="0.5"/>
<path d="M63.1357 59.3235L116.895 59.3235L116.895 65.0051C116.894 91.5576 95.3689 113.082 68.8164 113.082L63.1357 113.082L63.1357 59.3235Z" stroke="#A3A3A3" stroke-opacity="0.2" stroke-width="0.200453"/>
<path fill-rule="evenodd" clip-rule="evenodd" d="M0.523438 354.684L0.52344 300.725L54.4828 300.725L54.4828 306.506C54.4828 333.114 32.9127 354.684 6.30479 354.684L0.523438 354.684Z" fill="#A3A3A3" fill-opacity="0.5"/>
<path d="M0.52344 302.374L1.87207 302.374L1.87207 302.073L2.17285 302.073L2.17285 300.725L4.57031 300.725L4.57031 302.374L7.26856 302.374L7.26856 300.725L9.9668 300.725L9.9668 302.374L12.6641 302.374L12.6641 300.725L15.3623 300.725L15.3623 302.374L18.0605 302.374L18.0605 300.725L20.7578 300.725L20.7578 302.374L23.4561 302.374L23.4561 300.725L26.1543 300.725L26.1543 302.374L28.8525 302.374L28.8525 300.725L31.5498 300.725L31.5498 302.374L34.248 302.374L34.248 300.725L36.9463 300.725L36.9463 302.374L39.6436 302.374L39.6436 300.725L42.3418 300.725L42.3418 302.374L45.04 302.374L45.04 300.725L47.7383 300.725L47.7383 302.374L50.4355 302.374L50.4355 300.725L52.833 300.725L52.833 302.17L53.1338 302.17L53.1338 302.374L54.4824 302.374L54.4824 305.061L52.833 305.061L52.833 306.506C52.833 306.944 52.8274 307.381 52.8154 307.816L54.4629 307.861C54.4379 308.767 54.3878 309.666 54.3135 310.559L52.6709 310.422C52.5983 311.294 52.5018 312.159 52.3818 313.016L54.0147 313.244C53.8892 314.141 53.7385 315.029 53.5645 315.908L51.9473 315.588C51.7778 316.445 51.5849 317.293 51.3691 318.132L52.9658 318.543C52.7406 319.419 52.4884 320.284 52.2158 321.14L50.6475 320.641C50.3827 321.472 50.0956 322.293 49.7861 323.104L51.3232 323.692C51.0009 324.536 50.6567 325.368 50.2891 326.189L48.7861 325.515C48.4296 326.31 48.0515 327.094 47.6523 327.865L49.1143 328.622C48.6992 329.424 48.2617 330.212 47.8037 330.987L46.3877 330.148C45.9444 330.898 45.4806 331.634 44.9971 332.357L46.3652 333.274C45.8636 334.023 45.3415 334.757 44.7998 335.476L43.4844 334.485C42.9603 335.18 42.4169 335.86 41.8555 336.525L43.1123 337.587C42.5305 338.275 41.9314 338.948 41.3125 339.603L40.1152 338.471C39.5173 339.103 38.9018 339.719 38.2695 340.317L39.4014 341.514C38.7468 342.133 38.0742 342.733 37.3857 343.315L36.3232 342.057C35.6589 342.618 34.9786 343.162 34.2832 343.686L35.2744 345.002C34.5555 345.544 33.8207 346.066 33.0713 346.568L32.1553 345.198C31.4332 345.682 30.6971 346.146 29.9473 346.589L30.7842 348.007C30.0098 348.465 29.2223 348.903 28.4209 349.318L27.6641 347.854C26.8929 348.253 26.109 348.631 25.3135 348.988L25.9873 350.491C25.1668 350.859 24.3333 351.202 23.4893 351.525L22.9033 349.987C22.0928 350.296 21.271 350.584 20.4395 350.849L20.9385 352.418C20.0824 352.691 19.2169 352.943 18.3408 353.168L17.9307 351.571C17.0918 351.786 16.2433 351.979 15.3867 352.149L15.7061 353.767C14.8267 353.941 13.9388 354.091 13.043 354.216L12.8145 352.582C11.9573 352.702 11.0924 352.8 10.2207 352.872L10.3564 354.516C9.46372 354.59 8.56409 354.64 7.6582 354.665L7.61426 353.016C7.17932 353.028 6.74262 353.034 6.30469 353.034L4.85938 353.034L4.85938 354.684L2.17285 354.684L2.17285 353.335L1.96875 353.335L1.96875 353.034L0.523438 353.034L0.523438 350.637L2.17285 350.637L2.17285 347.939L0.523438 347.939L0.523438 345.24L2.17285 345.24L2.17285 342.543L0.523438 342.543L0.523438 339.845L2.17285 339.845L2.17285 337.147L0.523438 337.147L0.523438 334.449L2.17285 334.449L2.17285 331.751L0.523439 331.751L0.523439 329.053L2.17285 329.053L2.17285 326.355L0.523439 326.355L0.523439 323.657L2.17285 323.657L2.17285 320.959L0.523439 320.959L0.523439 318.261L2.17285 318.261L2.17285 315.564L0.523439 315.564L0.523439 312.865L2.17285 312.865L2.17285 310.167L0.523439 310.167L0.52344 307.469L2.17285 307.469L2.17285 304.772L0.52344 304.772L0.52344 302.374Z" stroke="#A3A3A3" stroke-opacity="0.2" stroke-width="3.29912" stroke-dasharray="2.64 2.64"/>
<path fill-rule="evenodd" clip-rule="evenodd" d="M0.523438 240.843L0.523435 294.144L54.4828 294.144L54.4828 288.433C54.4828 262.15 32.9127 240.843 6.30479 240.843L0.523438 240.843Z" fill="#A3A3A3" fill-opacity="0.5"/>
<path d="M0.624021 294.044L54.3828 294.044L54.3828 288.434C54.3828 262.207 32.8585 240.943 6.30469 240.943L0.624023 240.943L0.624021 294.044Z" stroke="#A3A3A3" stroke-opacity="0.2" stroke-width="0.200453"/>
<path fill-rule="evenodd" clip-rule="evenodd" d="M117.004 240.843L117.004 294.144L63.0446 294.144L63.0446 288.433C63.0446 262.15 84.6146 240.843 111.223 240.843L117.004 240.843Z" fill="#A3A3A3" fill-opacity="0.5"/>
<path d="M116.903 294.044L63.1445 294.044L63.1445 288.434C63.1445 262.207 84.6689 240.944 111.223 240.944L116.903 240.944L116.903 294.044Z" stroke="#A3A3A3" stroke-opacity="0.2" stroke-width="0.200453"/>
<path fill-rule="evenodd" clip-rule="evenodd" d="M63.0352 353.368L63.0352 300.066L116.994 300.066L116.994 305.777C116.994 332.061 95.4245 353.368 68.8165 353.368L63.0352 353.368Z" fill="#A3A3A3" fill-opacity="0.5"/>
<path d="M63.1357 300.167L116.895 300.167L116.895 305.777C116.895 332.004 95.3702 353.267 68.8164 353.267L63.1357 353.267L63.1357 300.167Z" stroke="#A3A3A3" stroke-opacity="0.2" stroke-width="0.200453"/>
<path fill-rule="evenodd" clip-rule="evenodd" d="M63.0391 174.381L63.0391 121.08L116.998 121.08L116.998 126.79C116.998 153.074 95.4284 174.381 68.8204 174.381L63.0391 174.381Z" fill="#A3A3A3" fill-opacity="0.5"/>
<path d="M63.0391 122.729L64.3877 122.729L64.3877 122.412L64.6885 122.412L64.6885 121.079L67.0859 121.079L67.0859 122.729L69.7842 122.729L69.7842 121.079L72.4824 121.079L72.4824 122.729L75.1797 122.729L75.1797 121.079L77.8779 121.079L77.8779 122.729L80.5762 122.729L80.5762 121.079L83.2734 121.079L83.2734 122.729L85.9717 122.729L85.9717 121.079L88.6699 121.079L88.6699 122.729L91.3682 122.729L91.3682 121.079L94.0654 121.079L94.0654 122.729L96.7637 122.729L96.7637 121.079L99.4619 121.079L99.4619 122.729L102.159 122.729L102.159 121.079L104.857 121.079L104.857 122.729L107.556 122.729L107.556 121.079L110.254 121.079L110.254 122.729L112.951 122.729L112.951 121.079L115.349 121.079L115.349 122.507L115.649 122.507L115.649 122.729L116.998 122.729L116.998 125.362L115.349 125.362L115.349 126.79C115.349 127.225 115.342 127.659 115.33 128.091L116.979 128.137C116.953 129.037 116.902 129.931 116.827 130.818L115.185 130.679C115.111 131.544 115.014 132.403 114.893 133.254L116.524 133.486C116.397 134.377 116.246 135.26 116.069 136.134L114.453 135.808C114.282 136.658 114.087 137.5 113.869 138.332L115.463 138.75C115.235 139.619 114.981 140.478 114.705 141.327L113.14 140.819C112.872 141.643 112.582 142.458 112.27 143.261L113.803 143.858C113.477 144.695 113.132 145.521 112.761 146.334L111.261 145.648C110.901 146.436 110.521 147.212 110.118 147.975L111.574 148.743C111.156 149.537 110.715 150.317 110.254 151.083L108.844 150.232C108.397 150.974 107.931 151.701 107.444 152.415L108.807 153.345C108.302 154.085 107.774 154.809 107.229 155.52L105.924 154.516C105.397 155.202 104.851 155.873 104.287 156.528L105.534 157.603C104.95 158.281 104.349 158.946 103.728 159.591L102.54 158.446C101.94 159.069 101.323 159.675 100.688 160.264L101.809 161.471C101.153 162.08 100.48 162.671 99.79 163.243L98.7393 161.976C98.0742 162.527 97.3932 163.061 96.6973 163.576L97.6777 164.902C96.9588 165.434 96.2229 165.945 95.4736 166.438L94.5693 165.062C93.848 165.536 93.1122 165.99 92.3633 166.425L93.1895 167.85C92.4162 168.298 91.6302 168.728 90.8301 169.135L90.084 167.664C89.3147 168.055 88.5328 168.426 87.7393 168.775L88.4014 170.283C87.5838 170.643 86.7539 170.98 85.9131 171.295L85.3359 169.753C84.5285 170.056 83.7101 170.338 82.8818 170.597L83.373 172.169C82.5212 172.435 81.6597 172.68 80.7881 172.9L80.3848 171.302C79.5499 171.513 78.7059 171.701 77.8535 171.866L78.167 173.483C77.292 173.653 76.4089 173.802 75.5176 173.925L75.2939 172.29C74.4415 172.407 73.5816 172.502 72.7148 172.573L72.8477 174.217C71.9604 174.289 71.0663 174.338 70.166 174.362L70.1221 172.714C69.6897 172.726 69.2557 172.731 68.8203 172.731L67.375 172.731L67.375 174.381L64.6885 174.381L64.6885 173.048L64.4844 173.048L64.4844 172.731L63.0391 172.731L63.0391 170.383L64.6885 170.383L64.6885 167.718L63.0391 167.718L63.0391 165.053L64.6885 165.053L64.6885 162.388L63.0391 162.388L63.0391 159.723L64.6885 159.723L64.6885 157.058L63.0391 157.058L63.0391 154.393L64.6885 154.393L64.6885 151.728L63.0391 151.728L63.0391 149.062L64.6885 149.063L64.6885 146.397L63.0391 146.397L63.0391 143.732L64.6885 143.732L64.6885 141.067L63.0391 141.067L63.0391 138.402L64.6885 138.402L64.6885 135.737L63.0391 135.737L63.0391 133.072L64.6885 133.072L64.6885 130.407L63.0391 130.407L63.0391 127.742L64.6885 127.742L64.6885 125.077L63.0391 125.077L63.0391 122.729Z" stroke="#A3A3A3" stroke-opacity="0.2" stroke-width="3.29912" stroke-dasharray="2.64 2.64"/>
<path fill-rule="evenodd" clip-rule="evenodd" d="M63.0352 180.961L63.0352 234.921L116.994 234.921L116.994 229.139C116.994 202.531 95.4245 180.961 68.8165 180.961L63.0352 180.961Z" fill="#A3A3A3" fill-opacity="0.5"/>
<path d="M63.1357 234.821L116.895 234.821L116.895 229.139C116.894 202.586 95.3689 181.062 68.8164 181.062L63.1357 181.062L63.1357 234.821Z" stroke="#A3A3A3" stroke-opacity="0.2" stroke-width="0.200453"/>
</g>
</svg>
