<svg width="71" height="71" viewBox="0 0 71 71" fill="none" xmlns="http://www.w3.org/2000/svg">
<g filter="url(#filter0_d_372_2816)">
<rect x="12.5391" y="13" width="45.3846" height="45.3846" rx="22.6923" fill="white"/>
<path d="M44.4191 35.7476C44.4191 30.7039 40.3304 26.6152 35.2867 26.6152C30.243 26.6152 26.1543 30.7039 26.1543 35.7476C26.1543 40.3058 29.4939 44.084 33.8598 44.7691V38.3875H31.541V35.7476H33.8598V33.7356C33.8598 31.4468 35.2232 30.1826 37.3092 30.1826C38.3081 30.1826 39.3535 30.3609 39.3535 30.3609V32.6084H38.2019C37.0675 32.6084 36.7136 33.3124 36.7136 34.0353V35.7476H39.2464L38.8415 38.3875H36.7136V44.7691C41.0795 44.084 44.4191 40.3058 44.4191 35.7476Z" fill="#6A01E1"/>
</g>
<defs>
<filter id="filter0_d_372_2816" x="0.4365" y="0.897437" width="69.5899" height="69.5899" filterUnits="userSpaceOnUse" color-interpolation-filters="sRGB">
<feFlood flood-opacity="0" result="BackgroundImageFix"/>
<feColorMatrix in="SourceAlpha" type="matrix" values="0 0 0 0 0 0 0 0 0 0 0 0 0 0 0 0 0 0 127 0" result="hardAlpha"/>
<feOffset/>
<feGaussianBlur stdDeviation="6.05128"/>
<feComposite in2="hardAlpha" operator="out"/>
<feColorMatrix type="matrix" values="0 0 0 0 0 0 0 0 0 0 0 0 0 0 0 0 0 0 0.1 0"/>
<feBlend mode="normal" in2="BackgroundImageFix" result="effect1_dropShadow_372_2816"/>
<feBlend mode="normal" in="SourceGraphic" in2="effect1_dropShadow_372_2816" result="shape"/>
</filter>
</defs>
</svg>
