<svg width="70" height="70" viewBox="0 0 70 70" fill="none" xmlns="http://www.w3.org/2000/svg">
<g filter="url(#filter0_d_7_798)">
<rect x="12.1025" y="12.1026" width="45.3846" height="45.3846" rx="22.6923" fill="#6A01E1"/>
<path d="M43.9826 34.8504C43.9826 29.8067 39.8939 25.718 34.8502 25.718C29.8065 25.718 25.7178 29.8067 25.7178 34.8504C25.7178 39.4085 29.0573 43.1867 33.4232 43.8718V37.4902H31.1045V34.8504H33.4232V32.8384C33.4232 30.5496 34.7867 29.2853 36.8727 29.2853C37.8715 29.2853 38.9169 29.4637 38.9169 29.4637V31.7111H37.7654C36.631 31.7111 36.2771 32.4151 36.2771 33.138V34.8504H38.8099L38.405 37.4902H36.2771V43.8718C40.643 43.1867 43.9826 39.4085 43.9826 34.8504Z" fill="white"/>
</g>
<defs>
<filter id="filter0_d_7_798" x="-2.38419e-05" y="6.67572e-06" width="69.5899" height="69.5897" filterUnits="userSpaceOnUse" color-interpolation-filters="sRGB">
<feFlood flood-opacity="0" result="BackgroundImageFix"/>
<feColorMatrix in="SourceAlpha" type="matrix" values="0 0 0 0 0 0 0 0 0 0 0 0 0 0 0 0 0 0 127 0" result="hardAlpha"/>
<feOffset/>
<feGaussianBlur stdDeviation="6.05128"/>
<feComposite in2="hardAlpha" operator="out"/>
<feColorMatrix type="matrix" values="0 0 0 0 0 0 0 0 0 0 0 0 0 0 0 0 0 0 0.1 0"/>
<feBlend mode="normal" in2="BackgroundImageFix" result="effect1_dropShadow_7_798"/>
<feBlend mode="normal" in="SourceGraphic" in2="effect1_dropShadow_7_798" result="shape"/>
</filter>
</defs>
</svg>
