<svg width="53" height="52" viewBox="0 0 53 52" fill="none" xmlns="http://www.w3.org/2000/svg">
<g clip-path="url(#clip0_372_3516)">
<path d="M36.8578 10.2192L33.5016 47.8176L18.4152 52L3.37033 47.8234L0.0175781 10.2192H36.8578Z" fill="#E44D26"/>
<path d="M18.4395 48.8031L30.63 45.4235L33.498 13.2939H18.4395V48.8031Z" fill="#F16529"/>
<path d="M11.9134 22.518H18.4378V17.906H6.87305L6.98338 19.1433L8.11699 31.8528H18.4378V27.2408H12.3349L11.9134 22.518ZM12.9528 34.1588H8.32306L8.96915 41.4004L18.4165 44.0228L18.4378 44.0171V39.2186L18.4175 39.224L13.2812 37.8371L12.9528 34.1588Z" fill="#EBEBEB"/>
<path d="M3.44727 0H5.79103V2.3156H7.93507V0H10.279V7.01222H7.93521V4.66413H5.79117V7.01222H3.44741L3.44727 0ZM13.361 2.32542H11.2979V0H17.7695V2.32542H15.7051V7.01222H13.3614V2.32542H13.361ZM18.7965 0H21.2403L22.7436 2.46391L24.2455 0H26.6903V7.01222H24.3561V3.53658L22.7436 6.0298H22.7032L21.0897 3.53658V7.01222H18.7965V0ZM27.8567 0H30.2012V4.69445H33.4972V7.01222H27.8566V0H27.8567Z" fill="black"/>
<path d="M18.424 31.8528H24.1032L23.5677 37.8342L18.4238 39.2225V44.0207L27.8787 41.4004L27.948 40.6211L29.032 28.4792L29.1445 27.2408H18.424V31.8528ZM18.424 22.5067V22.518H29.5641L29.6566 21.4814L29.8668 19.1433L29.977 17.906H18.424V22.5067Z" fill="white"/>
</g>
<defs>
<clipPath id="clip0_372_3516">
<rect width="52" height="52" fill="white" transform="translate(0.0175781)"/>
</clipPath>
</defs>
</svg>
