<svg width="70" height="70" viewBox="0 0 70 70" fill="none" xmlns="http://www.w3.org/2000/svg">
<g filter="url(#filter0_d_7_797)">
<rect x="12.1025" y="12.1026" width="45.3846" height="45.3846" rx="22.6923" fill="#6A01E1"/>
<g clip-path="url(#clip0_7_797)">
<path d="M34.8591 27.3641C37.3015 27.3641 37.5907 27.3748 38.5513 27.4177C39.444 27.4569 39.9261 27.6069 40.2474 27.7319C40.6724 27.8962 40.9795 28.0961 41.2973 28.4139C41.6186 28.7353 41.815 29.0388 41.9793 29.4637C42.1043 29.7851 42.2542 30.2708 42.2935 31.1599C42.3364 32.124 42.3471 32.4132 42.3471 34.8521C42.3471 37.2946 42.3364 37.5838 42.2935 38.5443C42.2542 39.437 42.1043 39.9191 41.9793 40.2405C41.815 40.6654 41.6151 40.9725 41.2973 41.2903C40.9759 41.6117 40.6724 41.8081 40.2474 41.9723C39.9261 42.0973 39.4404 42.2473 38.5513 42.2866C37.5872 42.3294 37.2979 42.3401 34.8591 42.3401C32.4166 42.3401 32.1274 42.3294 31.1668 42.2866C30.2741 42.2473 29.7921 42.0973 29.4707 41.9723C29.0458 41.8081 28.7387 41.6081 28.4209 41.2903C28.0995 40.9689 27.9031 40.6654 27.7389 40.2405C27.6139 39.9191 27.4639 39.4335 27.4246 38.5443C27.3818 37.5802 27.3711 37.291 27.3711 34.8521C27.3711 32.4097 27.3818 32.1204 27.4246 31.1599C27.4639 30.2672 27.6139 29.7851 27.7389 29.4637C27.9031 29.0388 28.1031 28.7317 28.4209 28.4139C28.7423 28.0926 29.0458 27.8962 29.4707 27.7319C29.7921 27.6069 30.2777 27.4569 31.1668 27.4177C32.1274 27.3748 32.4166 27.3641 34.8591 27.3641ZM34.8591 25.718C32.3774 25.718 32.0667 25.7287 31.0919 25.7715C30.1206 25.8144 29.4529 25.9715 28.8744 26.1964C28.2709 26.4321 27.7603 26.7428 27.2532 27.2534C26.7426 27.7605 26.4319 28.2711 26.1963 28.871C25.9713 29.453 25.8142 30.1172 25.7713 31.0885C25.7285 32.0669 25.7178 32.3775 25.7178 34.8593C25.7178 37.341 25.7285 37.6516 25.7713 38.6265C25.8142 39.5977 25.9713 40.2655 26.1963 40.844C26.4319 41.4474 26.7426 41.958 27.2532 42.4651C27.7603 42.9722 28.2709 43.2864 28.8708 43.5185C29.4529 43.7435 30.117 43.9006 31.0883 43.9434C32.0631 43.9863 32.3738 43.997 34.8555 43.997C37.3372 43.997 37.6479 43.9863 38.6227 43.9434C39.594 43.9006 40.2617 43.7435 40.8402 43.5185C41.4401 43.2864 41.9507 42.9722 42.4578 42.4651C42.9648 41.958 43.2791 41.4474 43.5112 40.8475C43.7361 40.2655 43.8932 39.6013 43.9361 38.63C43.9789 37.6552 43.9897 37.3445 43.9897 34.8628C43.9897 32.3811 43.9789 32.0704 43.9361 31.0956C43.8932 30.1243 43.7361 29.4566 43.5112 28.8781C43.2862 28.2711 42.9755 27.7605 42.4649 27.2534C41.9579 26.7464 41.4472 26.4321 40.8473 26.2C40.2653 25.9751 39.6011 25.8179 38.6299 25.7751C37.6515 25.7287 37.3408 25.718 34.8591 25.718Z" fill="white"/>
<path d="M34.8592 30.1636C32.2668 30.1636 30.1636 32.2668 30.1636 34.8593C30.1636 37.4517 32.2668 39.5549 34.8592 39.5549C37.4516 39.5549 39.5548 37.4517 39.5548 34.8593C39.5548 32.2668 37.4516 30.1636 34.8592 30.1636ZM34.8592 37.9052C33.1773 37.9052 31.8133 36.5411 31.8133 34.8593C31.8133 33.1774 33.1773 31.8134 34.8592 31.8134C36.5411 31.8134 37.9051 33.1774 37.9051 34.8593C37.9051 36.5411 36.5411 37.9052 34.8592 37.9052Z" fill="white"/>
<path d="M40.8365 29.978C40.8365 30.585 40.3438 31.0742 39.7403 31.0742C39.1332 31.0742 38.644 30.5814 38.644 29.978C38.644 29.3709 39.1368 28.8817 39.7403 28.8817C40.3438 28.8817 40.8365 29.3745 40.8365 29.978Z" fill="white"/>
</g>
</g>
<defs>
<filter id="filter0_d_7_797" x="-2.38419e-05" y="6.67572e-06" width="69.5899" height="69.5897" filterUnits="userSpaceOnUse" color-interpolation-filters="sRGB">
<feFlood flood-opacity="0" result="BackgroundImageFix"/>
<feColorMatrix in="SourceAlpha" type="matrix" values="0 0 0 0 0 0 0 0 0 0 0 0 0 0 0 0 0 0 127 0" result="hardAlpha"/>
<feOffset/>
<feGaussianBlur stdDeviation="6.05128"/>
<feComposite in2="hardAlpha" operator="out"/>
<feColorMatrix type="matrix" values="0 0 0 0 0 0 0 0 0 0 0 0 0 0 0 0 0 0 0.1 0"/>
<feBlend mode="normal" in2="BackgroundImageFix" result="effect1_dropShadow_7_797"/>
<feBlend mode="normal" in="SourceGraphic" in2="effect1_dropShadow_7_797" result="shape"/>
</filter>
<clipPath id="clip0_7_797">
<rect width="18.2826" height="18.2826" fill="white" transform="translate(25.7178 25.718)"/>
</clipPath>
</defs>
</svg>
