<svg width="71" height="71" viewBox="0 0 71 71" fill="none" xmlns="http://www.w3.org/2000/svg">
<g filter="url(#filter0_d_372_2814)">
<rect x="13" y="13" width="45.3846" height="45.3846" rx="22.6923" fill="white"/>
<g clip-path="url(#clip0_372_2814)">
<path d="M35.7565 28.2614C38.199 28.2614 38.4882 28.2721 39.4488 28.3149C40.3415 28.3542 40.8235 28.5042 41.1449 28.6292C41.5698 28.7934 41.8769 28.9934 42.1947 29.3112C42.5161 29.6326 42.7125 29.9361 42.8767 30.361C43.0017 30.6824 43.1517 31.168 43.191 32.0572C43.2338 33.0213 43.2445 33.3105 43.2445 35.7494C43.2445 38.1918 43.2338 38.4811 43.191 39.4416C43.1517 40.3343 43.0017 40.8164 42.8767 41.1378C42.7125 41.5627 42.5125 41.8698 42.1947 42.1876C41.8733 42.509 41.5698 42.7053 41.1449 42.8696C40.8235 42.9946 40.3379 43.1446 39.4488 43.1838C38.4846 43.2267 38.1954 43.2374 35.7565 43.2374C33.3141 43.2374 33.0249 43.2267 32.0643 43.1838C31.1716 43.1446 30.6895 42.9946 30.3682 42.8696C29.9432 42.7053 29.6361 42.5054 29.3183 42.1876C28.997 41.8662 28.8006 41.5627 28.6363 41.1378C28.5113 40.8164 28.3614 40.3308 28.3221 39.4416C28.2792 38.4775 28.2685 38.1883 28.2685 35.7494C28.2685 33.307 28.2792 33.0177 28.3221 32.0572C28.3614 31.1645 28.5113 30.6824 28.6363 30.361C28.8006 29.9361 29.0005 29.629 29.3183 29.3112C29.6397 28.9898 29.9432 28.7934 30.3682 28.6292C30.6895 28.5042 31.1752 28.3542 32.0643 28.3149C33.0249 28.2721 33.3141 28.2614 35.7565 28.2614ZM35.7565 26.6152C33.2748 26.6152 32.9642 26.6259 31.9893 26.6688C31.0181 26.7116 30.3503 26.8688 29.7718 27.0937C29.1684 27.3294 28.6577 27.6401 28.1507 28.1507C27.6401 28.6577 27.3294 29.1684 27.0937 29.7683C26.8688 30.3503 26.7116 31.0145 26.6688 31.9857C26.6259 32.9642 26.6152 33.2748 26.6152 35.7565C26.6152 38.2383 26.6259 38.5489 26.6688 39.5237C26.7116 40.495 26.8688 41.1628 27.0937 41.7412C27.3294 42.3447 27.6401 42.8553 28.1507 43.3624C28.6577 43.8694 29.1684 44.1837 29.7683 44.4158C30.3503 44.6407 31.0145 44.7978 31.9857 44.8407C32.9606 44.8835 33.2712 44.8943 35.753 44.8943C38.2347 44.8943 38.5453 44.8835 39.5202 44.8407C40.4914 44.7978 41.1592 44.6407 41.7377 44.4158C42.3376 44.1837 42.8482 43.8694 43.3552 43.3624C43.8623 42.8553 44.1765 42.3447 44.4086 41.7448C44.6336 41.1628 44.7907 40.4986 44.8336 39.5273C44.8764 38.5525 44.8871 38.2418 44.8871 35.7601C44.8871 33.2784 44.8764 32.9677 44.8336 31.9929C44.7907 31.0216 44.6336 30.3539 44.4086 29.7754C44.1837 29.1684 43.873 28.6577 43.3624 28.1507C42.8553 27.6436 42.3447 27.3294 41.7448 27.0973C41.1628 26.8723 40.4986 26.7152 39.5273 26.6724C38.5489 26.6259 38.2383 26.6152 35.7565 26.6152Z" fill="#6A01E1"/>
<path d="M35.7562 31.061C33.1638 31.061 31.0605 33.1642 31.0605 35.7567C31.0605 38.3491 33.1638 40.4523 35.7562 40.4523C38.3486 40.4523 40.4518 38.3491 40.4518 35.7567C40.4518 33.1642 38.3486 31.061 35.7562 31.061ZM35.7562 38.8026C34.0743 38.8026 32.7103 37.4385 32.7103 35.7567C32.7103 34.0748 34.0743 32.7108 35.7562 32.7108C37.438 32.7108 38.8021 34.0748 38.8021 35.7567C38.8021 37.4385 37.438 38.8026 35.7562 38.8026Z" fill="#6A01E1"/>
<path d="M41.7335 30.8751C41.7335 31.4821 41.2407 31.9713 40.6373 31.9713C40.0302 31.9713 39.541 31.4785 39.541 30.8751C39.541 30.268 40.0338 29.7788 40.6373 29.7788C41.2407 29.7788 41.7335 30.2716 41.7335 30.8751Z" fill="#6A01E1"/>
</g>
</g>
<defs>
<filter id="filter0_d_372_2814" x="0.897437" y="0.897437" width="69.5899" height="69.5899" filterUnits="userSpaceOnUse" color-interpolation-filters="sRGB">
<feFlood flood-opacity="0" result="BackgroundImageFix"/>
<feColorMatrix in="SourceAlpha" type="matrix" values="0 0 0 0 0 0 0 0 0 0 0 0 0 0 0 0 0 0 127 0" result="hardAlpha"/>
<feOffset/>
<feGaussianBlur stdDeviation="6.05128"/>
<feComposite in2="hardAlpha" operator="out"/>
<feColorMatrix type="matrix" values="0 0 0 0 0 0 0 0 0 0 0 0 0 0 0 0 0 0 0.1 0"/>
<feBlend mode="normal" in2="BackgroundImageFix" result="effect1_dropShadow_372_2814"/>
<feBlend mode="normal" in="SourceGraphic" in2="effect1_dropShadow_372_2814" result="shape"/>
</filter>
<clipPath id="clip0_372_2814">
<rect width="18.2826" height="18.2826" fill="white" transform="translate(26.6152 26.6152)"/>
</clipPath>
</defs>
</svg>
