<svg width="71" height="71" viewBox="0 0 71 71" fill="none" xmlns="http://www.w3.org/2000/svg">
<g filter="url(#filter0_d_372_2821)">
<rect x="12.6152" y="13" width="45.3846" height="45.3846" rx="22.6923" fill="white"/>
<path d="M30.3562 43.9903V32.2668H26.4595V43.9903H30.3562ZM28.4089 30.6667C29.7674 30.6667 30.6135 29.7663 30.6135 28.641C30.5884 27.4906 29.7674 26.6152 28.435 26.6152C27.1016 26.6152 26.2305 27.4906 26.2305 28.641C26.2305 29.7663 27.0755 30.6667 28.3838 30.6667H28.4089ZM32.5127 43.9903H36.4093V37.4436C36.4093 37.0932 36.4344 36.7429 36.538 36.4929C36.8193 35.7922 37.4604 35.0675 38.5376 35.0675C39.9473 35.0675 40.511 36.1426 40.511 37.7186V43.9893H44.4077V37.2679C44.4077 33.6671 42.4855 31.9917 39.9222 31.9917C37.8201 31.9917 36.8977 33.1662 36.3842 33.9662H36.4104V32.2668H32.5127C32.5639 33.367 32.5127 43.9903 32.5127 43.9903Z" fill="#6A01E1"/>
</g>
<defs>
<filter id="filter0_d_372_2821" x="0.512671" y="0.897437" width="69.5899" height="69.5899" filterUnits="userSpaceOnUse" color-interpolation-filters="sRGB">
<feFlood flood-opacity="0" result="BackgroundImageFix"/>
<feColorMatrix in="SourceAlpha" type="matrix" values="0 0 0 0 0 0 0 0 0 0 0 0 0 0 0 0 0 0 127 0" result="hardAlpha"/>
<feOffset/>
<feGaussianBlur stdDeviation="6.05128"/>
<feComposite in2="hardAlpha" operator="out"/>
<feColorMatrix type="matrix" values="0 0 0 0 0 0 0 0 0 0 0 0 0 0 0 0 0 0 0.1 0"/>
<feBlend mode="normal" in2="BackgroundImageFix" result="effect1_dropShadow_372_2821"/>
<feBlend mode="normal" in="SourceGraphic" in2="effect1_dropShadow_372_2821" result="shape"/>
</filter>
</defs>
</svg>
