<svg width="78" height="87" viewBox="0 0 78 87" fill="none" xmlns="http://www.w3.org/2000/svg">
<path d="M1.25391 56.7992H31.732V7.20381C31.732 6.09553 32.0091 4.15604 36.1652 0C13.556 0.886622 1.25391 16.9012 1.25391 27.707V56.7992Z" fill="white"/>
<path d="M77.7266 27.707V56.7992C77.7266 56.7992 76.699 54.6694 75.787 53.4744C74.8751 52.2794 73.5941 51.0083 71.908 49.8725C70.2219 48.7367 68.9824 48.1516 67.1978 47.656C65.4131 47.1603 64.3397 47.1018 62.4875 47.1018C60.6353 47.1018 59.5618 47.1603 57.7772 47.656C55.9926 48.1516 54.6924 48.7256 53.067 49.8725C51.4416 51.0195 50.4399 52.2559 49.465 53.4744C48.4902 54.693 47.2484 56.7992 47.2484 56.7992V7.20381C47.2484 6.09553 46.9714 4.15604 42.8152 0C65.4245 0.886622 77.7266 16.9012 77.7266 27.707Z" fill="white"/>
<ellipse cx="62.4849" cy="71.484" rx="15.5161" ry="15.5159" fill="white"/>
<rect x="0.976562" y="63.7262" width="31.0323" height="23.2738" fill="white"/>
</svg>
