<svg width="131" height="38" viewBox="0 0 131 38" fill="none" xmlns="http://www.w3.org/2000/svg">
<g clip-path="url(#clip0_372_3492)">
<path d="M49.0833 16.7291C49.0833 12.6102 47.9465 10.4956 45.6726 10.38C44.7677 10.3358 43.8847 10.4846 43.0252 10.8294C42.3393 11.0828 41.8777 11.334 41.6349 11.5877V21.419C43.0893 22.3621 44.3808 22.8005 45.5072 22.7315C47.8901 22.5683 49.0833 20.5696 49.0833 16.7291ZM51.8881 16.8999C51.8881 18.9925 51.413 20.7294 50.4575 22.1106C49.3927 23.6739 47.9169 24.4789 46.0302 24.523C44.6078 24.5697 43.1424 24.1095 41.6346 23.1444V32.0799L39.1953 31.181V11.3476C39.5956 10.8404 40.1109 10.4049 40.7352 10.0352C42.1871 9.16116 43.9509 8.712 46.0274 8.68993L46.0619 8.72557C47.9596 8.70096 49.4217 9.50596 50.4493 11.138C51.4076 12.6351 51.8881 14.554 51.8881 16.8999ZM66.7956 22.7643C66.7956 25.571 66.5235 27.5145 65.9791 28.5952C65.4321 29.6757 64.3911 30.5387 62.854 31.1813C61.6077 31.6885 60.2598 31.9643 58.8136 32.0112L58.4102 30.4233C59.8808 30.2168 60.9163 30.0098 61.5168 29.803C62.699 29.3895 63.5103 28.7556 63.956 27.9062C64.3136 27.2144 64.4897 25.8937 64.4897 23.9392V23.283C62.8217 24.0662 61.0738 24.4549 59.2459 24.4549C58.0447 24.4549 56.9854 24.0662 56.0726 23.283C55.0477 22.4311 54.5354 21.3506 54.5354 20.041V9.55291L56.9747 8.68993V19.2462C56.9747 20.3736 57.3268 21.2423 58.0313 21.8515C58.7358 22.4608 59.6486 22.7532 60.7668 22.7309C61.885 22.706 63.0832 22.2594 64.3561 21.3854V9.07008H66.7953L66.7956 22.7643ZM76.3175 24.3853C76.0503 24.4086 75.7823 24.4205 75.5142 24.4209C74.1345 24.4209 73.0588 24.0821 72.2905 23.401C71.5244 22.7201 71.1403 21.7802 71.1403 20.5807V10.6555H69.4695V9.07037H71.1403V4.86043L73.5768 3.96436V9.07037H76.3175V10.6555H73.5768V20.5117C73.5768 21.4575 73.8221 22.1273 74.313 22.519C74.7347 22.8415 75.4047 23.0262 76.3172 23.0731V24.3853H76.3175ZM91.0865 24.1785H88.6472V14.4519C88.6472 13.4622 88.4233 12.6102 87.9775 11.8992C87.4625 11.0939 86.7473 10.6914 85.829 10.6914C84.7108 10.6914 83.3125 11.3006 81.6339 12.5192V24.1785H79.1949V0.929092L81.6339 0.135132V10.7245C83.1923 9.55263 84.8951 8.96543 86.7446 8.96543C88.0364 8.96543 89.0823 9.41488 89.8832 10.3109C90.6865 11.2067 91.0868 12.3234 91.0868 13.6579L91.0865 24.1785ZM104.051 16.3323C104.051 14.7497 103.76 13.4429 103.181 12.4091C102.492 11.1493 101.422 10.4846 99.9759 10.4159C97.3017 10.5757 95.9672 12.5551 95.9672 16.3489C95.9672 18.0885 96.2449 19.5415 96.8053 20.7077C97.5205 22.1938 98.5935 22.9272 100.024 22.9023C102.709 22.88 104.051 20.691 104.051 16.3323ZM106.723 16.3487C106.723 18.6013 106.165 20.476 105.052 21.9729C103.827 23.6493 102.135 24.4899 99.9759 24.4899C97.8356 24.4899 96.1677 23.649 94.964 21.9729C93.8724 20.476 93.3278 18.6013 93.3278 16.3487C93.3278 14.2315 93.9176 12.4504 95.0974 11.0003C96.3437 9.46183 97.9821 8.68993 100.008 8.68993C102.033 8.68993 103.683 9.46183 104.953 11.0003C106.133 12.4504 106.723 14.2315 106.723 16.3487ZM120.707 24.1785H118.267V13.9006C118.267 12.7732 117.939 11.8935 117.283 11.2593C116.626 10.628 115.751 10.322 114.659 10.3466C113.501 10.3686 112.399 10.7601 111.353 11.5184V24.1785H108.914V11.207C110.317 10.1514 111.609 9.46183 112.789 9.13938C113.901 8.839 114.883 8.68993 115.729 8.68993C116.308 8.68993 116.853 8.74763 117.365 8.8636C118.323 9.09243 119.103 9.51699 119.703 10.1401C120.373 10.8294 120.707 11.6562 120.707 12.6241V24.1785Z" fill="#646464"/>
<path d="M15.105 1.02213C13.8499 1.02807 12.6515 1.13866 11.5971 1.33157C8.49058 1.89868 7.92655 3.08524 7.92655 5.27393V8.16438H15.2676V9.12776H5.17131C3.03787 9.12776 1.16947 10.4526 0.585181 12.9728C-0.0889117 15.8616 -0.118756 17.6642 0.585181 20.6805C1.10704 22.9258 2.35337 24.5256 4.48682 24.5256H7.01097V21.0606C7.01097 18.5574 9.10745 16.3495 11.5971 16.3495H18.9297C20.9709 16.3495 22.6003 14.6134 22.6003 12.4957V5.27365C22.6003 3.21846 20.9219 1.67438 18.9297 1.33128C17.6683 1.11462 16.3601 1.0159 15.105 1.02213ZM11.1349 3.34659C11.8934 3.34659 12.5124 3.99686 12.5124 4.7962C12.5124 5.5927 11.8931 6.23703 11.1349 6.23703C10.374 6.23703 9.75745 5.59298 9.75745 4.7962C9.75745 3.99686 10.374 3.34659 11.1349 3.34659Z" fill="url(#paint0_linear_372_3492)"/>
<path d="M23.5151 9.12781V12.4954C23.5151 15.1064 21.3723 17.3039 18.9289 17.3039H11.5963C9.58774 17.3039 7.92578 19.0796 7.92578 21.1577V28.3792C7.92578 30.4346 9.65564 31.6435 11.5963 32.233C13.9201 32.939 16.1485 33.0665 18.9289 32.233C20.7771 31.6803 22.5995 30.5676 22.5995 28.3792V25.489H15.2669V24.5256H26.27C28.4037 24.5256 29.1986 22.988 29.9406 20.6805C30.7072 18.3052 30.6746 16.0203 29.9406 12.9729C29.4132 10.7788 28.4062 9.12781 26.27 9.12781H23.5151ZM19.3908 27.4158C20.1517 27.4158 20.7683 28.0598 20.7683 28.8566C20.7683 29.6559 20.1517 30.3062 19.3908 30.3062C18.6324 30.3062 18.0134 29.6559 18.0134 28.8566C18.0134 28.0601 18.6327 27.4158 19.3908 27.4158Z" fill="url(#paint1_linear_372_3492)"/>
<path d="M125.459 6.82395H125.886V4.05315H126.899V3.72278H124.445V4.05315H125.458L125.459 6.82395ZM127.279 6.82395H127.644V4.29329L128.437 6.82366H128.843L129.67 4.30177V6.82395H130.069V3.72306H129.541L128.638 6.37987L127.868 3.72306H127.279V6.82395Z" fill="#646464"/>
<path opacity="0.444" d="M25.1877 37.1423C25.1877 38.2307 20.7831 39.1129 15.3496 39.1129C9.91632 39.1129 5.51172 38.2307 5.51172 37.1423C5.51172 36.0539 9.91632 35.1714 15.3496 35.1714C20.7831 35.1714 25.1877 36.0539 25.1877 37.1423Z" fill="url(#paint2_radial_372_3492)"/>
</g>
<defs>
<linearGradient id="paint0_linear_372_3492" x1="-0.655676" y1="1.9247" x2="16.7335" y2="16.2666" gradientUnits="userSpaceOnUse">
<stop stop-color="#5A9FD4"/>
<stop offset="1" stop-color="#306998"/>
</linearGradient>
<linearGradient id="paint1_linear_372_3492" x1="22.6241" y1="26.1143" x2="16.2861" y2="17.5179" gradientUnits="userSpaceOnUse">
<stop stop-color="#FFD43B"/>
<stop offset="1" stop-color="#FFE873"/>
</linearGradient>
<radialGradient id="paint2_radial_372_3492" cx="0" cy="0" r="1" gradientUnits="userSpaceOnUse" gradientTransform="translate(15.3464 37.097) rotate(-90) scale(1.97033 8.38518)">
<stop stop-color="#B8B8B8" stop-opacity="0.498"/>
<stop offset="1" stop-color="#7F7F7F" stop-opacity="0"/>
</radialGradient>
<clipPath id="clip0_372_3492">
<rect width="130" height="37.752" fill="white" transform="translate(0.0683594 0.124023)"/>
</clipPath>
</defs>
</svg>
