<svg width="59" height="51" viewBox="0 0 59 51" fill="none" xmlns="http://www.w3.org/2000/svg">
<path d="M56.8068 25.1329H49.1624V21.5331C49.1624 14.4053 52.3948 7.86271 57.9811 3.45338C58.0557 3.45338 58.0557 3.37874 58.1275 3.30697V3.23234C58.8624 2.57208 59.0088 1.5415 58.3485 0.73489C57.9811 0.29281 57.3209 4.38028e-07 56.7324 0.0746358C56.6577 0.0746358 56.586 0 56.5113 0C43.2833 1.46978 32.9199 13.3743 32.9199 27.0447L32.9228 49.0164C32.9228 50.1187 33.8041 51 34.9064 51H56.8781C57.9805 51 58.8617 50.1187 58.8617 49.0164L58.8646 27.0447C58.79 26.0141 57.9091 25.1329 56.8068 25.1329Z" fill="#EDEDED"/>
<path d="M23.9589 25.1329H16.2425V21.5331C16.2425 14.4053 19.4749 7.86271 25.0612 3.45338C25.1358 3.45338 25.1358 3.37874 25.1358 3.30697C25.2105 3.30697 25.2105 3.30697 25.2105 3.23234C25.8707 2.57208 26.02 1.5415 25.4315 0.73489C24.9894 0.29281 24.4038 4.38028e-07 23.8153 0.0746358C23.7407 0.0746358 23.6689 0 23.5943 0C10.3663 1.46978 0.00286996 13.3743 0.00286996 27.0447L0 49.0164C0 50.1187 0.881279 51 1.98361 51H23.9553C25.0577 51 25.9389 50.1187 25.9389 49.0164L25.9418 27.0447C25.8672 26.0141 24.9865 25.1329 23.9589 25.1329Z" fill="#EDEDED"/>
</svg>
