<svg width="96" height="34" viewBox="0 0 96 34" fill="none" xmlns="http://www.w3.org/2000/svg">
<g clip-path="url(#clip0_372_3522)">
<path d="M95.6991 25.0501L93.442 25.3511C93.442 25.3511 93.2915 24.4482 92.5392 23.8464C91.7868 23.2445 89.2288 23.395 89.2288 24.8997C89.2288 26.2539 90.2821 26.1034 92.3887 26.5548C94.3448 27.0062 96 27.6081 96 30.3166C96 31.8213 94.9467 33.6269 91.6364 33.6269C86.2194 33.6269 86.6708 29.5642 86.6708 29.5642H89.0784C89.0784 29.5642 89.2288 30.9185 90.1317 31.2194C91.185 31.6708 92.9906 31.5203 93.2915 30.6175C93.5925 29.7147 93.5925 28.6614 90.7335 28.3605C87.8746 27.9091 86.6708 26.7053 86.6708 24.7492C86.8213 22.9435 87.8746 21.4388 91.6364 21.4388C95.3981 21.5893 95.6991 25.0501 95.6991 25.0501ZM85.3166 25.0501L83.0596 25.3511C83.0596 25.3511 82.9091 24.4482 82.1567 23.8464C81.4044 23.2445 78.8464 23.395 78.8464 24.8997C78.8464 26.2539 79.8997 26.1034 82.0063 26.5548C83.9624 27.0062 85.6176 27.6081 85.6176 30.3166C85.6176 31.8213 84.5643 33.6269 81.2539 33.6269C75.837 33.6269 76.2884 29.5642 76.2884 29.5642H78.8464C78.8464 29.5642 78.9969 30.9185 79.8997 31.2194C80.953 31.6708 82.7586 31.5203 83.0596 30.6175C83.3605 29.7147 83.3605 28.6614 80.5016 28.3605C77.9436 28.0595 76.5893 27.0062 76.5893 25.3511V24.7492C76.7398 22.9435 77.7931 21.4388 81.4044 21.4388C84.8652 21.5893 85.3166 25.0501 85.3166 25.0501ZM72.5266 29.2633H75.0846V29.4138C74.9342 30.3166 74.4828 33.4765 70.1191 33.4765C66.2069 33.4765 64.8527 30.4671 64.8527 27.3072C64.8527 23.9968 66.8088 21.5893 70.4201 21.5893C74.4828 21.5893 74.7837 25.5015 74.7837 25.5015L72.3762 25.8025C72.3762 25.8025 72.2257 23.6959 70.1191 23.6959C68.0125 23.6959 67.2602 25.3511 67.2602 27.3072C67.2602 29.2633 67.8621 31.5203 69.9687 31.5203C72.0752 31.5203 72.5266 29.2633 72.5266 29.2633ZM59.7367 21.8903V33.326H57.6301V32.2727C57.6301 32.2727 56.8777 33.6269 55.0721 33.6269C53.116 33.6269 51.7618 32.7241 51.6113 29.2633C51.6113 25.652 53.8683 24.7492 55.373 24.7492C56.7273 24.7492 57.6301 25.8025 57.6301 25.8025V21.8903H59.7367ZM57.6301 29.1128C57.6301 27.9091 57.4796 26.5548 55.674 26.5548C53.8683 26.5548 53.8683 28.6614 53.8683 29.2633C53.8683 30.0156 54.0188 31.6708 55.674 31.6708C57.3292 31.6708 57.6301 30.3166 57.6301 29.1128ZM49.9561 27.6081V33.1755H47.6991V27.7586C47.6991 27.0062 47.2477 26.4044 46.3448 26.4044C45.442 26.4044 44.5392 27.1567 44.5392 27.9091V33.1755H42.2821V24.7492H44.5392V25.9529C44.5392 25.9529 45.2915 24.4482 47.5486 24.5987C50.1066 24.8997 49.9561 27.3072 49.9561 27.6081ZM38.2194 24.8997H40.4765V33.326H38.2194V24.8997ZM38.2194 21.8903H40.4765V23.8464H38.2194V21.8903ZM37.3166 24.8997L34.9091 33.326H32.652L31.1473 27.7586L29.6426 33.326H27.536L25.1285 24.8997H27.536L28.7398 30.3166L30.395 24.8997H32.3511L33.7053 30.4671L34.9091 24.8997H37.3166ZM21.8182 21.7398H24.0752V33.1755H21.8182V21.7398ZM17.7555 24.8997H20.0125V33.326H17.7555V24.8997ZM17.7555 21.8903H20.0125V23.8464H17.7555V21.8903ZM15.9498 27.9091V33.1755H13.8433V32.1222C13.8433 32.1222 13.2414 32.8746 12.3386 33.1755C10.9843 33.6269 9.02821 33.326 8.42633 31.8213C7.97492 30.6175 8.42633 29.2633 9.63009 28.6614C11.1348 27.9091 13.6928 28.0595 13.6928 28.0595C13.6928 28.0595 13.8433 27.4577 13.5423 27.0062C13.3918 26.5548 12.9404 26.4044 12.3386 26.4044C10.8339 26.4044 10.8339 27.4577 10.8339 27.4577L8.72727 27.3072C8.72727 27.3072 8.72727 26.2539 9.78056 25.5015C10.3824 25.0501 11.1348 24.8997 12.489 24.8997C14.1442 24.8997 15.9498 25.5015 15.9498 27.9091ZM12.489 31.6708C13.9937 31.3699 13.8433 29.5642 13.8433 29.5642H13.2414C12.79 29.5642 12.1881 29.5642 11.7367 29.7147C10.9843 29.8652 10.6834 30.1661 10.5329 30.4671C10.3824 30.9185 10.5329 31.3699 10.9843 31.6708C11.2853 31.8213 11.7367 31.8213 12.489 31.6708ZM9.32915 21.7398V23.9968H5.86834V33.326H3.31034V23.8464H0V21.7398H9.32915Z" fill="#252A2F"/>
<path d="M64.8532 3.83386C64.8532 3.83386 62.7466 6.99374 59.1353 6.39186C55.5241 5.78998 54.9222 0.373047 48.452 0.373047C40.477 0.373047 39.5742 7.14421 39.5742 7.14421C39.5742 7.14421 41.8313 3.83386 45.2921 4.43574C48.7529 5.03762 50.1071 10.4546 57.1792 10.4546C64.2513 10.4546 64.8532 3.83386 64.8532 3.83386Z" fill="url(#paint0_linear_372_3522)"/>
<path d="M56.4274 13.9153C56.4274 13.9153 54.3209 17.0752 50.7096 16.4733C47.0983 15.8714 46.4964 10.4545 40.0262 10.4545C32.0513 10.4545 31.1484 17.2256 31.1484 17.2256C31.1484 17.2256 33.4055 13.9153 36.8663 14.5172C40.1767 15.119 41.6814 20.536 48.7535 20.536C55.8256 20.536 56.4274 13.9153 56.4274 13.9153Z" fill="url(#paint1_linear_372_3522)"/>
</g>
<defs>
<linearGradient id="paint0_linear_372_3522" x1="39.5035" y1="5.4138" x2="64.8397" y2="5.4138" gradientUnits="userSpaceOnUse">
<stop stop-color="#45A9B3"/>
<stop offset="0.389" stop-color="#3FAEB0"/>
<stop offset="1" stop-color="#2CBBAB"/>
</linearGradient>
<linearGradient id="paint1_linear_372_3522" x1="31.0311" y1="15.4952" x2="56.3657" y2="15.4952" gradientUnits="userSpaceOnUse">
<stop stop-color="#45A9B3"/>
<stop offset="0.389" stop-color="#3FAEB0"/>
<stop offset="1" stop-color="#2CBBAB"/>
</linearGradient>
<clipPath id="clip0_372_3522">
<rect width="96" height="33.2544" fill="white" transform="translate(0 0.372803)"/>
</clipPath>
</defs>
</svg>
